<?xml version="1.0" encoding="UTF-8" standalone="no"?>
<!-- Created with Inkscape (http://www.inkscape.org/) -->

<svg
   xmlns:dc="http://purl.org/dc/elements/1.1/"
   xmlns:cc="http://creativecommons.org/ns#"
   xmlns:rdf="http://www.w3.org/1999/02/22-rdf-syntax-ns#"
   xmlns:svg="http://www.w3.org/2000/svg"
   xmlns="http://www.w3.org/2000/svg"
   xmlns:xlink="http://www.w3.org/1999/xlink"
   xmlns:sodipodi="http://sodipodi.sourceforge.net/DTD/sodipodi-0.dtd"
   xmlns:inkscape="http://www.inkscape.org/namespaces/inkscape"
   width="120"
   height="120"
   id="svg2"
   version="1.1"
   inkscape:version="0.47pre4 r22446"
   sodipodi:docname="ketupat.svg">
  <defs
     id="defs4">
    <linearGradient
       inkscape:collect="always"
       id="linearGradient2864">
      <stop
         style="stop-color:#ffffff;stop-opacity:1;"
         offset="0"
         id="stop2866" />
      <stop
         style="stop-color:#ffffff;stop-opacity:0;"
         offset="1"
         id="stop2868" />
    </linearGradient>
    <linearGradient
       inkscape:collect="always"
       id="linearGradient2854">
      <stop
         style="stop-color:#ffffff;stop-opacity:1;"
         offset="0"
         id="stop2856" />
      <stop
         style="stop-color:#ffffff;stop-opacity:0;"
         offset="1"
         id="stop2858" />
    </linearGradient>
    <linearGradient
       inkscape:collect="always"
       id="linearGradient2831">
      <stop
         style="stop-color:#ffffff;stop-opacity:1;"
         offset="0"
         id="stop2833" />
      <stop
         style="stop-color:#ffffff;stop-opacity:0;"
         offset="1"
         id="stop2835" />
    </linearGradient>
    <inkscape:perspective
       sodipodi:type="inkscape:persp3d"
       inkscape:vp_x="0 : 526.18109 : 1"
       inkscape:vp_y="0 : 1000 : 0"
       inkscape:vp_z="744.09448 : 526.18109 : 1"
       inkscape:persp3d-origin="372.04724 : 350.78739 : 1"
       id="perspective10" />
    <linearGradient
       inkscape:collect="always"
       xlink:href="#linearGradient2831"
       id="linearGradient2837"
       x1="-13.795568"
       y1="106.20339"
       x2="-16.871286"
       y2="39.419254"
       gradientUnits="userSpaceOnUse" />
    <linearGradient
       inkscape:collect="always"
       xlink:href="#linearGradient2854"
       id="linearGradient2860"
       x1="18.297029"
       y1="1043.0948"
       x2="50.376236"
       y2="991.53052"
       gradientUnits="userSpaceOnUse"
       gradientTransform="matrix(0.72207009,0.69181991,-0.69181991,0.72207009,692.29407,236.11385)" />
    <linearGradient
       inkscape:collect="always"
       xlink:href="#linearGradient2864"
       id="linearGradient2870"
       x1="-13.792153"
       y1="28.116798"
       x2="-55.673573"
       y2="47.983582"
       gradientUnits="userSpaceOnUse" />
  </defs>
  <sodipodi:namedview
     id="base"
     pagecolor="#ffffff"
     bordercolor="#666666"
     borderopacity="1.0"
     inkscape:pageopacity="0.0"
     inkscape:pageshadow="2"
     inkscape:zoom="2.975741"
     inkscape:cx="20.501471"
     inkscape:cy="56.217265"
     inkscape:document-units="px"
     inkscape:current-layer="layer1"
     showgrid="false"
     showguides="true"
     inkscape:guide-bbox="true"
     inkscape:window-width="1280"
     inkscape:window-height="750"
     inkscape:window-x="0"
     inkscape:window-y="0"
     inkscape:window-maximized="1" />
  <metadata
     id="metadata7">
    <rdf:RDF>
      <cc:Work
         rdf:about="">
        <dc:format>image/svg+xml</dc:format>
        <dc:type
           rdf:resource="http://purl.org/dc/dcmitype/StillImage" />
        <dc:title />
      </cc:Work>
    </rdf:RDF>
  </metadata>
  <g
     inkscape:label="Layer 1"
     inkscape:groupmode="layer"
     id="layer1"
     transform="translate(0,-932.36218)">
    <g
       transform="matrix(0.38758333,0,0,0.4030689,73.248695,613.74382)"
       id="g2900">
      <rect
         transform="matrix(0.72055386,0.69339898,-0.71115889,0.70303132,0,0)"
         y="643.1651"
         x="714.38165"
         height="60.846569"
         width="60.461224"
         id="rect2902"
         style="fill:#44aa00;fill-opacity:1;stroke:#f2fb00;stroke-width:1.70737088;stroke-opacity:0" />
      <rect
         style="fill:#55d400;fill-opacity:1;stroke:#f2fb00;stroke-width:0.9093703;stroke-opacity:0"
         id="rect2904"
         width="32.22636"
         height="32.383781"
         x="754.755"
         y="686.60101"
         transform="matrix(0.75766424,0.65264454,-0.74889306,0.66269086,0,0)" />
      <rect
         transform="matrix(0.75766424,0.65264454,-0.74889306,0.66269086,0,0)"
         y="718.71625"
         x="786.49854"
         height="32.383781"
         width="32.22636"
         id="rect2906"
         style="fill:#55d400;fill-opacity:1;stroke:#f2fb00;stroke-width:0.9093703;stroke-opacity:0" />
      <path
         transform="translate(0,932.36218)"
         d="m 60.12487,97.914935 c 0.972749,0.554653 1.909415,1.159918 2.800437,1.838046 0.814986,0.639079 1.559795,1.359989 2.298095,2.084409 0.814114,0.77824 1.574514,1.6052 2.269482,2.49113 0.708341,0.96236 1.336397,1.97877 1.977301,2.98617 0.519867,0.83507 1.009666,1.6849 1.440705,2.56936 0.406272,0.84041 0.768924,1.7038 1.126572,2.56655 0.347086,0.84535 0.706767,1.67881 0.918067,2.57012 0.163221,0.78666 0.370037,1.56127 0.569529,2.33899 0.23383,0.7912 0.200045,1.52992 -0.167454,2.26642 -1.509078,2.06163 -4.063212,3.26372 -6.560231,3.44695 -1.523022,0.0669 -3.048055,0.0502 -4.572139,0.0569 -1.146691,0.10067 -2.131112,-0.21074 -3.067728,-0.84377 -0.763633,-0.50397 -1.264865,-1.18987 -1.672498,-1.98991 -0.38693,-0.75297 -0.461207,-1.58843 -0.516334,-2.41828 -0.137407,-0.89728 -0.255099,-1.78219 -0.219666,-2.69103 0.03261,-0.93325 0.147396,-1.85282 0.304396,-2.77185 0.109007,-0.97427 0.218777,-1.94635 0.353224,-2.91767 0.06203,-0.85437 0.248557,-1.68939 0.380051,-2.53362 0.16894,-0.83714 0.327894,-1.67427 0.417218,-2.52399 0.06338,-0.68967 0.06884,-1.3827 0.07269,-2.0747 0.0071,-0.79557 0.0059,-1.59122 0.0059,-2.386814 0.0028,-0.788753 -0.287045,-1.501178 -1.07678,-1.753404 -0.819406,0.132471 -1.609303,0.532305 -2.369202,0.867973 -1.085144,0.50363 -2.262306,0.747928 -3.352603,1.232755 -0.963344,0.33461 -1.85808,0.83365 -2.810131,1.19453 -0.906113,0.42321 -1.869723,0.68727 -2.814709,1.00183 -0.855015,0.21344 -1.625805,0.60598 -2.379603,1.04848 -1.03944,0.63989 -2.188441,1.06404 -3.302223,1.55375 -1.545852,0.78545 -4.400739,2.35568 2.527997,-1.49978 0.181181,-0.10082 -0.348063,0.22566 -0.516929,0.34597 -0.389188,0.27728 -0.579917,0.44594 -0.945795,0.74859 -0.672366,0.61153 -1.498927,1.17465 -1.704055,2.10571 0.01201,0.77488 0.469519,1.35344 1.120348,1.7189 0.660367,0.27883 1.32511,0.29892 2.001004,0.0874 1.304552,-0.45336 2.630707,-0.84935 3.919752,-1.3463 1.230729,-0.51803 2.395493,-1.17193 3.619893,-1.70578 1.15479,-0.54283 2.324566,-1.05241 3.478653,-1.5973 0.196654,-0.0853 0.393306,-0.17058 0.58996,-0.25587 0.1995,-0.0865 0.982076,-0.42409 1.175735,-0.51537 0.19012,-0.0896 0.745544,-0.38794 0.563712,-0.28252 -4.274523,2.47823 -4.789519,2.85542 -3.196661,1.75456 0.821393,-0.62358 1.434013,-1.4511 1.971695,-2.31974 0.455365,-1.00722 1.060298,-1.90987 1.751156,-2.767999 0.13135,-0.15329 0.262699,-0.306579 0.394049,-0.459869 0,0 4.533002,-1.912652 4.533002,-1.912652 l 0,0 c -0.133757,0.149198 -0.267514,0.298395 -0.401271,0.447593 -0.699229,0.822986 -1.364051,1.672073 -1.764102,2.687437 -0.514079,0.92463 -1.120845,1.79776 -1.910786,2.51094 -2.27845,1.78353 -4.907976,3.02641 -7.545571,4.16894 -1.157204,0.54061 -2.326712,1.05374 -3.484944,1.59209 -1.207428,0.55998 -2.378891,1.20097 -3.626818,1.66919 -1.328001,0.47388 -2.663369,0.94138 -4.017688,1.33172 -0.780186,0.0988 -1.539284,0.002 -2.229019,-0.40112 -0.752119,-0.53641 -1.276069,-1.2668 -1.387459,-2.20507 0.05648,-1.27158 0.715964,-1.64051 1.587836,-2.45836 2.170576,-1.89621 4.731208,-3.27224 7.339745,-4.4843 1.125866,-0.49361 2.263303,-0.96685 3.308358,-1.62205 0.772555,-0.42003 1.590899,-0.72636 2.437375,-0.965496 0.947804,-0.292232 1.877589,-0.636607 2.788667,-1.029434 0.932118,-0.406502 1.853818,-0.838393 2.807582,-1.19314 1.10966,-0.413775 2.259448,-0.720047 3.333099,-1.230189 0.833849,-0.35289 1.736091,-0.862841 2.653702,-0.558007 0.843319,0.496048 1.312898,1.254315 1.348755,2.24486 0.0019,0.793844 0.0048,1.587705 0.01047,2.381536 -0.0021,0.7072 -0.0045,1.41528 -0.06004,2.12076 -0.07972,0.85832 -0.222034,1.70684 -0.41334,2.54758 -0.115508,0.8501 -0.328889,1.6801 -0.395015,2.53697 -0.134409,0.97322 -0.268561,1.9419 -0.347246,2.92159 -0.119571,0.90928 -0.323306,1.80437 -0.323712,2.7282 -0.0614,0.89325 0.03343,1.75872 0.197943,2.63905 0.04085,0.76224 0.08978,1.53551 0.431232,2.23328 0.367995,0.72735 0.806458,1.34134 1.523703,1.77347 0.886351,0.53982 1.823753,0.70585 2.862173,0.64366 1.521643,0.009 3.047931,0.0206 4.564512,-0.12026 0.39807,-0.0612 0.65838,-0.0804 1.033396,-0.21057 0.133346,-0.0463 0.507485,-0.2455 0.386851,-0.17221 -7.230904,4.39298 -4.568152,2.99402 -3.364268,1.87142 0.496637,-0.56981 0.553209,-1.18139 0.35266,-1.90139 -0.188698,-0.78499 -0.402995,-1.56217 -0.575439,-2.35117 -0.175644,-0.87222 -0.514664,-1.68304 -0.85085,-2.50394 -0.364741,-0.85124 -0.729157,-1.70388 -1.130128,-2.53821 -0.408572,-0.87537 -0.887676,-1.70815 -1.392412,-2.53084 -0.621075,-0.99849 -1.23388,-2.004 -1.939751,-2.94596 -0.693533,-0.86438 -1.450805,-1.66709 -2.258279,-2.42637 -0.722391,-0.70947 -1.450534,-1.41648 -2.250214,-2.03982 -0.878772,-0.66207 -1.800641,-1.26466 -2.80149,-1.72855 0,0 4.165913,-2.741025 4.165913,-2.741025 z"
         id="path2908"
         style="fill:#55d400;fill-opacity:1;stroke:#f2fb00;stroke-opacity:0" />
      <path
         d="m 60.535728,951.1871 c -1.070387,-0.24824 -2.103761,-0.61864 -3.157617,-0.92726 -1.741733,-0.61561 -3.566767,-0.86283 -5.374599,-1.18835 -3.027145,-0.60755 -5.899862,-1.77595 -8.808442,-2.78447 -2.735377,-0.90738 -5.533813,-1.68311 -8.089465,-3.04027 -1.040163,-0.57304 -1.69016,-1.44745 -2.186804,-2.49636 -0.381468,-0.98712 -0.458825,-2.048 -0.497909,-3.09502 -0.02295,-1.21065 0.406563,-2.30915 1.0342,-3.32121 1.612172,-2.13607 4.164773,-3.5311 6.732072,-4.22667 0.918144,-0.21411 1.852339,-0.22021 2.784528,-0.12955 2.613951,0.72152 5.122014,1.78007 7.647031,2.76128 2.069899,0.77494 4.191181,1.39334 6.132238,2.46552 1.094556,0.80875 2.003658,1.82914 2.784426,2.9366 0.674603,0.90413 1.257446,1.86654 1.827641,2.83822 0.546395,0.89751 1.084013,1.80009 1.630788,2.69742 0.563917,0.79577 0.974072,1.69219 1.558563,2.47173 0.711749,0.92609 1.669216,1.59198 2.590487,2.28866 0.918849,0.71243 1.911466,1.30887 2.913133,1.89441 1.200068,0.6145 2.394243,1.25132 3.677238,1.67405 1.417859,0.34835 2.865411,0.55572 4.276238,0.93234 1.158465,0.25132 2.310734,-0.0881 3.415832,-0.42665 0.213652,-0.0942 0.430902,-0.18055 0.640956,-0.28248 0.235189,-0.11414 0.46398,-0.24106 0.693971,-0.36534 0.24335,-0.1315 0.965416,-0.54043 0.725973,-0.40195 -1.156433,0.66884 -2.309576,1.34368 -3.477041,1.99306 -0.235759,0.13114 0.457879,-0.2857 0.680774,-0.43767 0.227862,-0.15537 0.447342,-0.32268 0.671013,-0.48402 1.215774,-0.89544 2.286009,-1.95284 3.276255,-3.08736 1.272446,-1.51092 2.304916,-3.19766 3.373361,-4.85308 1.053666,-1.72974 1.915886,-3.5698 2.725456,-5.42401 0.0984,-0.22302 0.196794,-0.44605 0.295191,-0.66907 0,0 4.450938,-2.03304 4.450938,-2.03304 l 0,0 c -0.10537,0.22396 -0.21074,0.44791 -0.31611,0.67186 -0.83471,1.87707 -1.719783,3.7392 -2.751966,5.51636 -1.041509,1.66123 -2.064282,3.33969 -3.277194,4.88405 -0.970805,1.17533 -2.028005,2.26951 -3.245645,3.19418 -2.542242,1.95779 -5.386029,3.56609 -8.354257,4.77315 -1.18108,0.31725 -2.368155,0.57229 -3.576373,0.21791 -1.420098,-0.36537 -2.872147,-0.58522 -4.286877,-0.97188 -1.295864,-0.47501 -2.525771,-1.11188 -3.753949,-1.73847 -1.01373,-0.5971 -2.001577,-1.23301 -2.936062,-1.94964 -0.954917,-0.73042 -1.936216,-1.43856 -2.687828,-2.39148 -0.588333,-0.79571 -0.996301,-1.70682 -1.565332,-2.51775 -0.557971,-0.89425 -1.093043,-1.80143 -1.634365,-2.70554 -0.570514,-0.95466 -1.133484,-1.91387 -1.795438,-2.80954 -0.745131,-1.03934 -1.585793,-2.02996 -2.640947,-2.76774 -1.888834,-1.04823 -3.950243,-1.70734 -5.951133,-2.50551 -2.525649,-0.9591 -5.052728,-2.05042 -7.722093,-2.52515 -0.911993,-0.008 -1.830504,0.0137 -2.708099,0.2936 -1.599152,0.58664 -4.01702,2.12147 2.85441,-1.82331 0.147703,-0.0848 -0.284214,0.18848 -0.417664,0.2943 -0.37783,0.29959 -0.425172,0.38957 -0.748157,0.75986 -0.672055,0.89426 -1.120762,1.89779 -1.156782,3.03318 0.03376,0.98263 0.06901,1.98412 0.411471,2.91731 0.436732,0.95646 1.040379,1.72794 1.965883,2.26528 2.457164,1.3763 5.149805,2.23418 7.809382,3.12894 2.962659,0.98495 5.911048,2.04056 8.997678,2.57093 1.822097,0.34404 3.652467,0.65008 5.425708,1.20953 1.081588,0.29981 2.14604,0.65734 3.244467,0.89452 0,0 -4.129154,2.80159 -4.129154,2.80159 z"
         id="path2910"
         style="fill:#55d400;fill-opacity:1;stroke:#f2fb00;stroke-opacity:0" />
      <path
         transform="translate(0,932.36218)"
         d="m 57.367516,17.24859 c 0.553158,-0.144491 1.059069,-0.394484 1.559688,-0.663652 0.209753,-0.112778 0.832335,-0.463224 0.626217,-0.343932 -1.188992,0.688134 -4.757891,2.749043 -3.574966,2.050532 1.580478,-0.933264 3.178464,-1.836555 4.767696,-2.754833 1.531892,-0.787838 4.441422,-2.288485 -2.451341,1.456266 -0.199217,0.108232 0.373764,-0.256986 0.554685,-0.393621 0.481937,-0.363967 0.534856,-0.431485 0.965325,-0.82871 0.918556,-0.896518 1.596358,-1.997616 2.361812,-3.020385 0.89448,-1.065696 1.426396,-2.338564 1.893839,-3.6325235 0.319565,-1.0324908 0.62732,-2.0688379 0.80917,-3.1353338 0.113342,-0.765731 0.161437,-1.5332831 0.02121,-2.2963698 C 64.554262,2.940731 64.179634,2.2205133 63.876228,1.4516025 63.653667,0.60545403 63.097886,-0.01280264 62.513237,-0.6323038 c -0.896799,-1.1024001 -1.880586,-2.1206404 -2.957384,-3.0468026 -1.366636,-1.0823872 -2.842372,-2.0097071 -4.334727,-2.9055753 -1.159003,-0.8252729 -2.40043,-1.355704 -3.7961,-1.5889266 -1.007549,-0.1470567 -1.862993,-0.1890661 -2.795288,0.2529164 0,0 3.900569,-3.0534691 3.900569,-3.0534691 l 0,0 c 0.967066,-0.276319 1.951237,-0.205831 2.933143,-0.0161 1.409673,0.314389 2.655891,0.92693 3.829985,1.7732266 1.510573,0.9237844 3.039097,1.8349932 4.417833,2.9521581 1.07868,0.9522424 2.062588,1.9949683 3.027232,3.0613437 0.620758,0.6632489 1.227951,1.3383167 1.466962,2.23950352 0.323161,0.81289739 0.692556,1.52416274 1.057775,2.31256268 0.189712,0.8158014 0.19738,1.6265041 0.06844,2.4554929 -0.173152,1.1063458 -0.510282,2.1676054 -0.823536,3.2405274 -0.461168,1.3149864 -0.93358,2.6558493 -1.808324,3.7618721 -0.79728,1.017695 -1.480107,2.123982 -2.339177,3.089031 -2.077948,2.119959 -4.839666,3.329578 -7.428913,4.729544 1.205785,-0.697356 4.825447,-2.785421 3.617356,-2.092068 -2.289,1.313712 -4.564271,2.948948 -7.129187,3.755142 0,0 3.947622,-3.03948 3.947622,-3.03948 z"
         id="path2912"
         style="fill:#55d400;fill-opacity:1;stroke:#f2fb00;stroke-opacity:0" />
    </g>
    <g
       id="g2880"
       transform="matrix(0.73163276,0,0,0.73049769,61.056187,291.72197)" />
    <g
       id="g2872"
       transform="matrix(0.85542894,0,0,0.83136959,-4.3600039,168.90421)">
      <rect
         style="fill:#44aa00;fill-opacity:1;stroke:#f2fb00;stroke-width:1.70737088;stroke-opacity:0"
         id="rect2860"
         width="60.461224"
         height="60.846569"
         x="714.38165"
         y="643.1651"
         transform="matrix(0.72055386,0.69339898,-0.71115889,0.70303132,0,0)" />
      <rect
         transform="matrix(0.75766424,0.65264454,-0.74889306,0.66269086,0,0)"
         y="686.60101"
         x="754.755"
         height="32.383781"
         width="32.22636"
         id="rect2862"
         style="fill:#55d400;fill-opacity:1;stroke:#f2fb00;stroke-width:0.9093703;stroke-opacity:0" />
      <rect
         style="fill:#55d400;fill-opacity:1;stroke:#f2fb00;stroke-width:0.9093703;stroke-opacity:0"
         id="rect2864"
         width="32.22636"
         height="32.383781"
         x="786.49854"
         y="718.71625"
         transform="matrix(0.75766424,0.65264454,-0.74889306,0.66269086,0,0)" />
      <path
         style="fill:#55d400;fill-opacity:1;stroke:#f2fb00;stroke-opacity:0"
         id="path2866"
         d="m 60.12487,97.914935 c 0.972749,0.554653 1.909415,1.159918 2.800437,1.838046 0.814986,0.639079 1.559795,1.359989 2.298095,2.084409 0.814114,0.77824 1.574514,1.6052 2.269482,2.49113 0.708341,0.96236 1.336397,1.97877 1.977301,2.98617 0.519867,0.83507 1.009666,1.6849 1.440705,2.56936 0.406272,0.84041 0.768924,1.7038 1.126572,2.56655 0.347086,0.84535 0.706767,1.67881 0.918067,2.57012 0.163221,0.78666 0.370037,1.56127 0.569529,2.33899 0.23383,0.7912 0.200045,1.52992 -0.167454,2.26642 -1.509078,2.06163 -4.063212,3.26372 -6.560231,3.44695 -1.523022,0.0669 -3.048055,0.0502 -4.572139,0.0569 -1.146691,0.10067 -2.131112,-0.21074 -3.067728,-0.84377 -0.763633,-0.50397 -1.264865,-1.18987 -1.672498,-1.98991 -0.38693,-0.75297 -0.461207,-1.58843 -0.516334,-2.41828 -0.137407,-0.89728 -0.255099,-1.78219 -0.219666,-2.69103 0.03261,-0.93325 0.147396,-1.85282 0.304396,-2.77185 0.109007,-0.97427 0.218777,-1.94635 0.353224,-2.91767 0.06203,-0.85437 0.248557,-1.68939 0.380051,-2.53362 0.16894,-0.83714 0.327894,-1.67427 0.417218,-2.52399 0.06338,-0.68967 0.06884,-1.3827 0.07269,-2.0747 0.0071,-0.79557 0.0059,-1.59122 0.0059,-2.386814 0.0028,-0.788753 -0.287045,-1.501178 -1.07678,-1.753404 -0.819406,0.132471 -1.609303,0.532305 -2.369202,0.867973 -1.085144,0.50363 -2.262306,0.747928 -3.352603,1.232755 -0.963344,0.33461 -1.85808,0.83365 -2.810131,1.19453 -0.906113,0.42321 -1.869723,0.68727 -2.814709,1.00183 -0.855015,0.21344 -1.625805,0.60598 -2.379603,1.04848 -1.03944,0.63989 -2.188441,1.06404 -3.302223,1.55375 -1.545852,0.78545 -4.400739,2.35568 2.527997,-1.49978 0.181181,-0.10082 -0.348063,0.22566 -0.516929,0.34597 -0.389188,0.27728 -0.579917,0.44594 -0.945795,0.74859 -0.672366,0.61153 -1.498927,1.17465 -1.704055,2.10571 0.01201,0.77488 0.469519,1.35344 1.120348,1.7189 0.660367,0.27883 1.32511,0.29892 2.001004,0.0874 1.304552,-0.45336 2.630707,-0.84935 3.919752,-1.3463 1.230729,-0.51803 2.395493,-1.17193 3.619893,-1.70578 1.15479,-0.54283 2.324566,-1.05241 3.478653,-1.5973 0.196654,-0.0853 0.393306,-0.17058 0.58996,-0.25587 0.1995,-0.0865 0.982076,-0.42409 1.175735,-0.51537 0.19012,-0.0896 0.745544,-0.38794 0.563712,-0.28252 -4.274523,2.47823 -4.789519,2.85542 -3.196661,1.75456 0.821393,-0.62358 1.434013,-1.4511 1.971695,-2.31974 0.455365,-1.00722 1.060298,-1.90987 1.751156,-2.767999 0.13135,-0.15329 0.262699,-0.306579 0.394049,-0.459869 0,0 4.533002,-1.912652 4.533002,-1.912652 l 0,0 c -0.133757,0.149198 -0.267514,0.298395 -0.401271,0.447593 -0.699229,0.822986 -1.364051,1.672073 -1.764102,2.687437 -0.514079,0.92463 -1.120845,1.79776 -1.910786,2.51094 -2.27845,1.78353 -4.907976,3.02641 -7.545571,4.16894 -1.157204,0.54061 -2.326712,1.05374 -3.484944,1.59209 -1.207428,0.55998 -2.378891,1.20097 -3.626818,1.66919 -1.328001,0.47388 -2.663369,0.94138 -4.017688,1.33172 -0.780186,0.0988 -1.539284,0.002 -2.229019,-0.40112 -0.752119,-0.53641 -1.276069,-1.2668 -1.387459,-2.20507 0.05648,-1.27158 0.715964,-1.64051 1.587836,-2.45836 2.170576,-1.89621 4.731208,-3.27224 7.339745,-4.4843 1.125866,-0.49361 2.263303,-0.96685 3.308358,-1.62205 0.772555,-0.42003 1.590899,-0.72636 2.437375,-0.965496 0.947804,-0.292232 1.877589,-0.636607 2.788667,-1.029434 0.932118,-0.406502 1.853818,-0.838393 2.807582,-1.19314 1.10966,-0.413775 2.259448,-0.720047 3.333099,-1.230189 0.833849,-0.35289 1.736091,-0.862841 2.653702,-0.558007 0.843319,0.496048 1.312898,1.254315 1.348755,2.24486 0.0019,0.793844 0.0048,1.587705 0.01047,2.381536 -0.0021,0.7072 -0.0045,1.41528 -0.06004,2.12076 -0.07972,0.85832 -0.222034,1.70684 -0.41334,2.54758 -0.115508,0.8501 -0.328889,1.6801 -0.395015,2.53697 -0.134409,0.97322 -0.268561,1.9419 -0.347246,2.92159 -0.119571,0.90928 -0.323306,1.80437 -0.323712,2.7282 -0.0614,0.89325 0.03343,1.75872 0.197943,2.63905 0.04085,0.76224 0.08978,1.53551 0.431232,2.23328 0.367995,0.72735 0.806458,1.34134 1.523703,1.77347 0.886351,0.53982 1.823753,0.70585 2.862173,0.64366 1.521643,0.009 3.047931,0.0206 4.564512,-0.12026 0.39807,-0.0612 0.65838,-0.0804 1.033396,-0.21057 0.133346,-0.0463 0.507485,-0.2455 0.386851,-0.17221 -7.230904,4.39298 -4.568152,2.99402 -3.364268,1.87142 0.496637,-0.56981 0.553209,-1.18139 0.35266,-1.90139 -0.188698,-0.78499 -0.402995,-1.56217 -0.575439,-2.35117 -0.175644,-0.87222 -0.514664,-1.68304 -0.85085,-2.50394 -0.364741,-0.85124 -0.729157,-1.70388 -1.130128,-2.53821 -0.408572,-0.87537 -0.887676,-1.70815 -1.392412,-2.53084 -0.621075,-0.99849 -1.23388,-2.004 -1.939751,-2.94596 -0.693533,-0.86438 -1.450805,-1.66709 -2.258279,-2.42637 -0.722391,-0.70947 -1.450534,-1.41648 -2.250214,-2.03982 -0.878772,-0.66207 -1.800641,-1.26466 -2.80149,-1.72855 0,0 4.165913,-2.741025 4.165913,-2.741025 z"
         transform="translate(0,932.36218)" />
      <path
         style="fill:#55d400;fill-opacity:1;stroke:#f2fb00;stroke-opacity:0"
         id="path2868"
         d="m 60.535728,951.1871 c -1.070387,-0.24824 -2.103761,-0.61864 -3.157617,-0.92726 -1.741733,-0.61561 -3.566767,-0.86283 -5.374599,-1.18835 -3.027145,-0.60755 -5.899862,-1.77595 -8.808442,-2.78447 -2.735377,-0.90738 -5.533813,-1.68311 -8.089465,-3.04027 -1.040163,-0.57304 -1.69016,-1.44745 -2.186804,-2.49636 -0.381468,-0.98712 -0.458825,-2.048 -0.497909,-3.09502 -0.02295,-1.21065 0.406563,-2.30915 1.0342,-3.32121 1.612172,-2.13607 4.164773,-3.5311 6.732072,-4.22667 0.918144,-0.21411 1.852339,-0.22021 2.784528,-0.12955 2.613951,0.72152 5.122014,1.78007 7.647031,2.76128 2.069899,0.77494 4.191181,1.39334 6.132238,2.46552 1.094556,0.80875 2.003658,1.82914 2.784426,2.9366 0.674603,0.90413 1.257446,1.86654 1.827641,2.83822 0.546395,0.89751 1.084013,1.80009 1.630788,2.69742 0.563917,0.79577 0.974072,1.69219 1.558563,2.47173 0.711749,0.92609 1.669216,1.59198 2.590487,2.28866 0.918849,0.71243 1.911466,1.30887 2.913133,1.89441 1.200068,0.6145 2.394243,1.25132 3.677238,1.67405 1.417859,0.34835 2.865411,0.55572 4.276238,0.93234 1.158465,0.25132 2.310734,-0.0881 3.415832,-0.42665 0.213652,-0.0942 0.430902,-0.18055 0.640956,-0.28248 0.235189,-0.11414 0.46398,-0.24106 0.693971,-0.36534 0.24335,-0.1315 0.965416,-0.54043 0.725973,-0.40195 -1.156433,0.66884 -2.309576,1.34368 -3.477041,1.99306 -0.235759,0.13114 0.457879,-0.2857 0.680774,-0.43767 0.227862,-0.15537 0.447342,-0.32268 0.671013,-0.48402 1.215774,-0.89544 2.286009,-1.95284 3.276255,-3.08736 1.272446,-1.51092 2.304916,-3.19766 3.373361,-4.85308 1.053666,-1.72974 1.915886,-3.5698 2.725456,-5.42401 0.0984,-0.22302 0.196794,-0.44605 0.295191,-0.66907 0,0 4.450938,-2.03304 4.450938,-2.03304 l 0,0 c -0.10537,0.22396 -0.21074,0.44791 -0.31611,0.67186 -0.83471,1.87707 -1.719783,3.7392 -2.751966,5.51636 -1.041509,1.66123 -2.064282,3.33969 -3.277194,4.88405 -0.970805,1.17533 -2.028005,2.26951 -3.245645,3.19418 -2.542242,1.95779 -5.386029,3.56609 -8.354257,4.77315 -1.18108,0.31725 -2.368155,0.57229 -3.576373,0.21791 -1.420098,-0.36537 -2.872147,-0.58522 -4.286877,-0.97188 -1.295864,-0.47501 -2.525771,-1.11188 -3.753949,-1.73847 -1.01373,-0.5971 -2.001577,-1.23301 -2.936062,-1.94964 -0.954917,-0.73042 -1.936216,-1.43856 -2.687828,-2.39148 -0.588333,-0.79571 -0.996301,-1.70682 -1.565332,-2.51775 -0.557971,-0.89425 -1.093043,-1.80143 -1.634365,-2.70554 -0.570514,-0.95466 -1.133484,-1.91387 -1.795438,-2.80954 -0.745131,-1.03934 -1.585793,-2.02996 -2.640947,-2.76774 -1.888834,-1.04823 -3.950243,-1.70734 -5.951133,-2.50551 -2.525649,-0.9591 -5.052728,-2.05042 -7.722093,-2.52515 -0.911993,-0.008 -1.830504,0.0137 -2.708099,0.2936 -1.599152,0.58664 -4.01702,2.12147 2.85441,-1.82331 0.147703,-0.0848 -0.284214,0.18848 -0.417664,0.2943 -0.37783,0.29959 -0.425172,0.38957 -0.748157,0.75986 -0.672055,0.89426 -1.120762,1.89779 -1.156782,3.03318 0.03376,0.98263 0.06901,1.98412 0.411471,2.91731 0.436732,0.95646 1.040379,1.72794 1.965883,2.26528 2.457164,1.3763 5.149805,2.23418 7.809382,3.12894 2.962659,0.98495 5.911048,2.04056 8.997678,2.57093 1.822097,0.34404 3.652467,0.65008 5.425708,1.20953 1.081588,0.29981 2.14604,0.65734 3.244467,0.89452 0,0 -4.129154,2.80159 -4.129154,2.80159 z" />
      <path
         style="fill:#55d400;fill-opacity:1;stroke:#f2fb00;stroke-opacity:0"
         id="path2870"
         d="m 57.367516,17.24859 c 0.553158,-0.144491 1.059069,-0.394484 1.559688,-0.663652 0.209753,-0.112778 0.832335,-0.463224 0.626217,-0.343932 -1.188992,0.688134 -4.757891,2.749043 -3.574966,2.050532 1.580478,-0.933264 3.178464,-1.836555 4.767696,-2.754833 1.531892,-0.787838 4.441422,-2.288485 -2.451341,1.456266 -0.199217,0.108232 0.373764,-0.256986 0.554685,-0.393621 0.481937,-0.363967 0.534856,-0.431485 0.965325,-0.82871 0.918556,-0.896518 1.596358,-1.997616 2.361812,-3.020385 0.89448,-1.065696 1.426396,-2.338564 1.893839,-3.6325235 0.319565,-1.0324908 0.62732,-2.0688379 0.80917,-3.1353338 0.113342,-0.765731 0.161437,-1.5332831 0.02121,-2.2963698 C 64.554262,2.940731 64.179634,2.2205133 63.876228,1.4516025 63.653667,0.60545403 63.097886,-0.01280264 62.513237,-0.6323038 c -0.896799,-1.1024001 -1.880586,-2.1206404 -2.957384,-3.0468026 -1.366636,-1.0823872 -2.842372,-2.0097071 -4.334727,-2.9055753 -1.159003,-0.8252729 -2.40043,-1.355704 -3.7961,-1.5889266 -1.007549,-0.1470567 -1.862993,-0.1890661 -2.795288,0.2529164 0,0 3.900569,-3.0534691 3.900569,-3.0534691 l 0,0 c 0.967066,-0.276319 1.951237,-0.205831 2.933143,-0.0161 1.409673,0.314389 2.655891,0.92693 3.829985,1.7732266 1.510573,0.9237844 3.039097,1.8349932 4.417833,2.9521581 1.07868,0.9522424 2.062588,1.9949683 3.027232,3.0613437 0.620758,0.6632489 1.227951,1.3383167 1.466962,2.23950352 0.323161,0.81289739 0.692556,1.52416274 1.057775,2.31256268 0.189712,0.8158014 0.19738,1.6265041 0.06844,2.4554929 -0.173152,1.1063458 -0.510282,2.1676054 -0.823536,3.2405274 -0.461168,1.3149864 -0.93358,2.6558493 -1.808324,3.7618721 -0.79728,1.017695 -1.480107,2.123982 -2.339177,3.089031 -2.077948,2.119959 -4.839666,3.329578 -7.428913,4.729544 1.205785,-0.697356 4.825447,-2.785421 3.617356,-2.092068 -2.289,1.313712 -4.564271,2.948948 -7.129187,3.755142 0,0 3.947622,-3.03948 3.947622,-3.03948 z"
         transform="translate(0,932.36218)" />
    </g>
    <path
       style="fill:url(#linearGradient2860);fill-opacity:1;stroke:#f2fb00;stroke-width:0.6961363;stroke-opacity:0"
       d="m 40.375618,978.56628 c 4.945753,4.43903 -18.471033,-7.79604 -3.685412,22.12102 4.630718,9.3697 -11.412044,4.6491 -16.357818,0.2101 -4.945704,-4.43909 -8.533508,-8.50727 -1.552323,-16.2853 6.981134,-7.77803 16.649806,-10.48486 21.595553,-6.04582 z"
       id="path2851"
       sodipodi:nodetypes="csssc" />
    <path
       sodipodi:type="arc"
       style="fill:url(#linearGradient2870);fill-opacity:1;stroke:#f2fb00;stroke-opacity:0"
       id="path2862"
       sodipodi:cx="-48.356434"
       sodipodi:cy="41.821781"
       sodipodi:rx="6.7722774"
       sodipodi:ry="5.7029705"
       d="m -41.584157,41.821781 a 6.7722774,5.7029705 0 1 1 -13.544554,0 6.7722774,5.7029705 0 1 1 13.544554,0 z"
       transform="matrix(0.7665442,0,0,0.91027122,89.938632,937.18411)" />
  </g>
</svg>
